<svg width="60" height="60" viewBox="0 0 60 60" fill="none" xmlns="http://www.w3.org/2000/svg">
<g clip-path="url(#clip0_2978_812)">
<path d="M27.8189 0.12593C33.6957 -0.310558 39.6944 1.03859 44.8084 3.97017C48.9981 6.3558 52.5954 9.7704 55.2 13.8274C57.836 17.9138 59.4444 22.655 59.8392 27.5022C60.2257 32.0915 59.5457 36.7711 57.8421 41.0525C56.3206 44.896 53.9863 48.4133 51.0458 51.3175C48.5637 53.7736 45.6506 55.7932 42.4768 57.2498C39.3557 58.6872 35.9829 59.5724 32.5601 59.8632C31.6282 59.9563 30.693 59.9693 29.7578 59.9309C28.5701 59.998 27.3817 59.8714 26.2022 59.7366C21.0834 59.0997 16.1466 57.0972 12.0246 53.9973C8.33976 51.2374 5.30145 47.621 3.2271 43.5106C1.39974 39.9038 0.322883 35.9207 0.077957 31.8849C0.00748947 31.2705 0.0806936 30.6534 0.0697472 30.0377C0.0676947 29.58 0.0478543 29.123 0.0444336 28.6653C0.177159 25.93 0.662221 23.2085 1.52562 20.608C2.36781 18.0582 3.55686 15.624 5.04899 13.3916C7.36621 9.91818 10.4162 6.93802 13.9409 4.70084C18.093 2.05592 22.9087 0.470058 27.8189 0.12593ZM29.3705 2.01487C24.3776 2.11065 19.4209 3.58157 15.1881 6.23197C10.0481 9.42217 5.99039 14.3214 3.83189 19.9745C1.91011 24.9544 1.47636 30.4892 2.56074 35.7141C3.6718 41.1373 6.45834 46.1959 10.4264 50.0539C14.4143 53.9597 19.5947 56.6327 25.096 57.5891C27.9386 58.0892 30.8579 58.1474 33.719 57.7663C38.2967 57.1636 42.7122 55.3882 46.4408 52.6666C50.075 50.0279 53.0613 46.5024 55.0604 42.4803C57.1902 38.2249 58.1863 33.4174 57.9523 28.666C57.7108 23.2612 55.8431 17.9453 52.6542 13.5756C49.4818 9.19161 45.0136 5.75717 39.953 3.83676C36.5883 2.54919 32.9712 1.93482 29.3705 2.01487Z" fill="#006697"/>
<path d="M29.9116 10.8206C29.9561 10.7617 30.0573 10.7008 30.095 10.8034C32.7071 15.1642 35.3444 19.5106 37.9435 23.8789C36.6772 23.8796 35.4101 23.8824 34.1444 23.868C33.0813 22.1686 32.0776 20.4281 30.9987 18.7355C30.7497 18.3496 30.5102 17.9549 30.2222 17.595C29.8753 18.0233 29.6031 18.5063 29.2972 18.964C25.9695 24.208 22.7704 29.5321 19.4769 34.7973C19.2286 35.2345 18.9481 35.6764 18.879 36.1841C25.9695 36.4358 33.0649 36.154 40.1574 36.2689C40.5043 36.2744 40.8909 36.3291 41.2008 36.1362C41.3602 35.9877 41.2425 35.7613 41.1563 35.606C40.401 34.3738 39.6772 33.1218 38.9273 31.8855C34.7308 31.8842 30.5335 31.8787 26.3369 31.876C26.5121 31.4142 26.772 30.99 27.0088 30.5583C27.4247 29.842 27.8338 29.1195 28.3155 28.445C32.3773 28.4648 36.4391 28.4874 40.5002 28.5024C40.5974 28.5147 40.7417 28.4655 40.7958 28.579C42.7846 31.8363 44.7686 35.0963 46.7554 38.3549C47.0592 38.8659 47.4108 39.3558 47.6017 39.925C40.035 39.9127 32.469 39.9017 24.9023 39.8901C20.7775 39.8716 16.6514 39.9106 12.5273 39.8532C13.1191 38.7421 13.7787 37.668 14.4122 36.5802C19.1937 28.5113 24.0738 20.502 28.884 12.4502C29.2138 11.9001 29.445 11.2769 29.9116 10.8206Z" fill="#006697"/>
<path d="M13.8122 42.1957C14.4108 42.0664 15.0704 42.1355 15.5903 42.4748C15.5233 42.7108 15.4562 42.9476 15.3878 43.1843C15.0314 42.9845 14.6441 42.7827 14.22 42.8545C13.7883 42.8771 13.4441 43.2349 13.3696 43.6495C13.2909 44.1045 13.2813 44.6278 13.5646 45.0192C13.8444 45.3749 14.363 45.4208 14.7728 45.3099C14.7652 45.0554 14.7707 44.8009 14.7673 44.5471C14.5552 44.5485 14.3438 44.5471 14.1324 44.5457C14.1276 44.3357 14.1262 44.1257 14.1351 43.9163C14.6209 43.9191 15.1066 43.9088 15.5924 43.9218C15.5896 44.5163 15.5903 45.1108 15.5917 45.7054C14.9376 46.0379 14.142 46.1295 13.4476 45.8723C12.9372 45.6821 12.5883 45.1902 12.4932 44.6648C12.3858 44.0812 12.4268 43.4388 12.747 42.925C12.9796 42.5453 13.3812 42.2901 13.8122 42.1957Z" fill="#006697"/>
<path d="M24.6951 42.2012C25.2417 42.1985 25.7884 42.1909 26.335 42.2046C26.7852 42.221 27.2901 42.3989 27.4981 42.8306C27.7204 43.3273 27.6547 44.0231 27.1717 44.3453C26.7058 44.6607 26.1174 44.6258 25.5811 44.6162C25.5469 45.0609 25.5729 45.5084 25.5681 45.9544C25.28 45.9606 24.9913 45.9551 24.7026 45.9613C24.6835 44.7086 24.6992 43.4546 24.6951 42.2012ZM25.5701 42.8929C25.5619 43.2452 25.5646 43.5975 25.5681 43.9499C25.8636 43.943 26.1715 43.9909 26.4568 43.8931C26.855 43.7515 26.8495 43.0646 26.441 42.9387C26.1571 42.8628 25.8595 42.899 25.5701 42.8929Z" fill="#006697"/>
<path d="M31.9169 42.2285C32.2672 42.1656 32.6264 42.2066 32.9808 42.2039C33.3769 43.3929 33.7724 44.5813 34.1712 45.769C34.1883 45.8312 34.2013 45.8956 34.2116 45.9612C33.9065 45.9537 33.6013 45.9647 33.2962 45.951C33.2278 45.6937 33.1696 45.4324 33.0622 45.1888C32.6469 45.208 32.231 45.1834 31.8157 45.2005C31.6447 45.4002 31.6741 45.7225 31.5331 45.951C31.241 45.9688 30.9489 45.9544 30.6567 45.9551C31.0734 44.712 31.5181 43.4778 31.9169 42.2285ZM31.9806 44.5628C32.2789 44.5628 32.5771 44.5635 32.8754 44.5621C32.7598 44.0463 32.5792 43.5469 32.4437 43.0358C32.2549 43.5298 32.1153 44.0497 31.9806 44.5628Z" fill="#006697"/>
<path d="M37.8062 42.2005C38.3405 42.1964 38.8748 42.1978 39.4091 42.1991C39.7936 42.1998 40.2116 42.2764 40.4969 42.5556C40.8185 42.8867 40.839 43.419 40.6762 43.8301C40.5647 44.1024 40.2972 44.2447 40.057 44.3857C40.3471 44.9084 40.6707 45.4174 40.9197 45.9613C40.6037 45.9551 40.2883 45.9599 39.9722 45.9558C39.7136 45.4625 39.4372 44.9788 39.1895 44.4801C39.0157 44.4582 38.8406 44.4596 38.6668 44.4732C38.6634 44.9692 38.6846 45.4659 38.6559 45.9613C38.3692 45.9455 38.0805 45.9811 37.7959 45.938C37.8151 44.6922 37.7938 43.4463 37.8062 42.2005ZM38.6648 42.9024C38.6716 43.2178 38.6702 43.5339 38.6655 43.8493C38.9795 43.8575 39.299 43.8835 39.6089 43.8206C40.0167 43.7214 40.0132 43.0276 39.6068 42.9284C39.2969 42.8682 38.9781 42.8901 38.6648 42.9024Z" fill="#006697"/>
<path d="M44.6792 42.2025C44.9733 42.195 45.2682 42.1963 45.5624 42.2011C45.5679 42.7095 45.5501 43.2178 45.5713 43.7254C45.9428 43.2725 46.2917 42.8018 46.6516 42.3393C46.7042 42.2736 46.759 42.1813 46.8602 42.1991C47.1613 42.1963 47.463 42.1902 47.764 42.2093C47.3946 42.6643 46.9991 43.0994 46.6256 43.551C46.5462 43.6194 46.6427 43.7124 46.6694 43.7829C47.0778 44.504 47.4746 45.2312 47.8837 45.9523C47.556 45.9592 47.2283 45.9667 46.902 45.9475C46.6242 45.3879 46.3006 44.8515 46.0276 44.2892C45.8456 44.4315 45.6869 44.6148 45.5679 44.8112C45.5501 45.1936 45.5713 45.5774 45.5583 45.9605C45.2668 45.9564 44.9761 45.9551 44.686 45.9619C44.6709 44.7092 44.6839 43.4559 44.6792 42.2025Z" fill="#006697"/>
<path d="M19.2765 44.0539C19.8355 44.0505 20.3944 44.0498 20.9541 44.0546C20.9588 44.2386 20.9588 44.4233 20.9527 44.6087C20.3937 44.6094 19.8348 44.6128 19.2765 44.6067C19.2724 44.422 19.2724 44.2379 19.2765 44.0539Z" fill="#006697"/>
</g>
<defs>
<clipPath id="clip0_2978_812">
<rect width="60" height="60" fill="white"/>
</clipPath>
</defs>
</svg>
