<svg width="110" height="60" viewBox="0 0 110 60" fill="none" xmlns="http://www.w3.org/2000/svg">
<path d="M65.7268 10.1282C65.0941 10.6027 64.4005 11.0523 63.6561 11.4726C62.5517 8.70432 60.9648 6.64384 59.2336 5.11178C58.6923 4.63259 58.1372 4.20492 57.5779 3.82422C57.0294 3.4494 56.4767 3.11928 55.9303 2.82799C55.3295 2.50847 54.7369 2.23592 54.1649 2.00409C53.6645 1.80087 53.1795 1.6285 52.7183 1.48286C53.1132 1.38399 53.5115 1.29119 53.9143 1.20634C55.268 0.921669 56.6044 0.731899 57.8946 0.637767C56.8497 0.923004 55.8085 1.08532 54.6581 1.59045L56.3638 2.42494C58.4832 1.40274 60.7718 1.03398 63.1624 0.834732C63.6281 0.913712 64.0785 1.00917 64.5101 1.12205C65.388 1.35255 66.1572 1.64803 66.804 1.99747C64.4787 1.87512 61.5455 1.99406 58.0022 3.45131C58.5688 3.85151 59.1068 4.28183 59.6138 4.74226C62.265 3.51817 65.0927 2.90943 68.068 2.88936C68.6633 3.45131 69.0254 4.09147 69.119 4.78297C69.3376 6.39856 68.1008 8.34693 65.7268 10.1282ZM58.6329 13.6187C57.7236 11.1372 56.4339 9.1996 54.9867 7.68686C55.6784 7.20901 56.6605 6.48418 57.3033 6.11939C56.8783 5.62354 56.3932 5.1237 55.8434 4.63789C55.1805 4.9754 54.1335 5.70442 53.3571 6.2014C53.3211 6.1728 53.2857 6.14269 53.2496 6.11466C52.8092 5.76976 52.3635 5.45705 51.9166 5.17182C52.6903 4.67464 53.8248 3.95909 54.5024 3.58161C54.0145 3.23955 53.4874 2.91284 52.9168 2.60753C52.2266 2.95963 51.0266 3.68312 50.182 4.19829C50.1714 4.19299 50.1601 4.18693 50.1493 4.18162C49.3155 3.77404 48.5049 3.45528 47.7526 3.20603C49.0288 2.62343 50.4112 2.11962 51.8618 1.71071C52.3656 1.9306 52.8433 2.16717 53.2943 2.41832C53.8456 2.72571 54.3581 3.05451 54.835 3.39846C55.3129 3.74393 55.7551 4.10548 56.1635 4.4769C56.6926 4.95873 57.1656 5.45705 57.588 5.96029C60.0628 8.90811 60.7971 12.0152 60.9481 12.7815C60.2045 13.0876 59.4308 13.3675 58.6329 13.6187ZM70.2423 4.54641C70.1573 3.91627 69.9436 3.39524 69.6088 2.9528C69.5253 2.83726 68.8932 2.24804 68.8932 2.24804C68.068 1.62131 66.8901 1.17888 65.4007 0.762006C63.5472 0.260852 61.0324 0.0329994 61.0324 0.0329994C58.7679 -0.0872698 56.2716 0.121269 53.7246 0.657651C53.0151 0.806709 52.3162 0.979061 51.6306 1.17149L50.9906 1.35938C49.5432 1.79954 48.1662 2.33289 46.8954 2.94351L46.3234 3.22743C45.2164 3.79468 44.1979 4.42217 43.2953 5.09909C40.6956 7.0501 39.2611 9.09998 39.0332 10.8853C39.3063 9.17006 41.335 6.9338 43.9741 5.39701C44.8823 4.72558 45.9132 4.10474 47.0363 3.54752C47.8255 3.92575 48.5403 4.34867 49.1871 4.80361C49.729 5.18525 50.2235 5.58868 50.6752 6.0063C51.0627 6.36522 51.4188 6.73531 51.7455 7.11014C52.2633 7.70485 52.7077 8.31283 53.0878 8.91417C54.6106 11.3209 55.1138 13.6128 55.2581 14.4753C52.9522 14.9271 50.7052 15.1008 48.6613 14.9958C47.9075 15.0333 47.1814 15.0346 46.4899 15.0025C47.3577 14.0231 49.1403 11.8374 52.3268 9.38333C51.9541 8.79865 51.5037 8.18651 50.9639 7.57853C48.4182 9.38124 46.2052 11.4692 43.3207 14.5602C42.7301 14.4098 42.1935 14.224 41.7164 14.0049C41.8941 13.7992 44.8315 10.1182 49.8815 6.48606C49.4258 6.07316 48.9225 5.67165 48.3666 5.29076C45.5904 7.18041 43.1195 9.41798 39.974 12.7588C40.8291 14.1687 42.5049 15.2437 44.8648 15.8625C47.9284 16.6661 51.8417 16.6394 55.8841 15.789C59.9265 14.9377 63.6302 13.3602 66.3134 11.347C69.1518 9.2176 70.5469 6.80216 70.2423 4.54641Z" fill="#FAD7A0"/>
<path d="M19.0165 20.4155H15.3992C14.9937 20.4155 14.6648 20.7443 14.6648 21.1498V35.113C14.6648 36.9786 14.2893 38.3476 13.5375 39.2196C12.786 40.0921 11.5759 40.5285 9.90826 40.5285C8.18567 40.5285 6.95154 40.095 6.20531 39.2277C5.45888 38.361 5.08615 37.0006 5.08615 35.1458V27.9845C5.08615 27.6203 4.79011 27.3243 4.42589 27.3243H0.66081C0.296025 27.3243 0 27.6203 0 27.9845V35.9195C0 38.6737 0.855886 40.8439 2.56768 42.4295C4.27967 44.015 6.68221 44.8075 9.77662 44.8075C11.8284 44.8075 13.6057 44.4514 15.1092 43.7377C16.6124 43.0248 17.7617 41.9984 18.5576 40.6601C19.3533 39.3211 19.7508 37.7631 19.7508 35.9858V21.1498C19.7508 20.7443 19.4222 20.4155 19.0165 20.4155Z" fill="#FAD7A0"/>
<path d="M36.5354 40.2647H28.2141C27.8541 40.2647 27.562 39.9726 27.562 39.6126V21.0951C27.562 20.7195 27.2573 20.4155 26.8824 20.4155H23.1388C22.7639 20.4155 22.46 20.7195 22.46 21.0951V43.6917C22.46 44.126 22.8113 44.4781 23.2458 44.4781H36.5354C36.9697 44.4781 37.3218 44.126 37.3218 43.6917V41.0511C37.3218 40.6168 36.9697 40.2647 36.5354 40.2647Z" fill="#FAD7A0"/>
<path d="M52.1281 20.4048H47.9514C47.7342 20.4048 47.5357 20.5264 47.4382 20.7201L42.9863 29.5072C42.8172 29.8413 42.3401 29.8405 42.1717 29.5066L37.7505 20.7215C37.6522 20.5271 37.4539 20.4048 37.2361 20.4048H33.0225C32.5877 20.4048 32.3097 20.8692 32.5155 21.252L40.043 35.2674V43.7224C40.043 44.134 40.3771 44.4673 40.7887 44.4673H44.3674C44.779 44.4673 45.1123 44.134 45.1123 43.7224V35.1024L52.6338 21.2548C52.8415 20.8713 52.5643 20.4048 52.1281 20.4048Z" fill="#FAD7A0"/>
<path d="M79.6889 34.4712H75.2475C74.7939 34.4712 74.4698 34.0302 74.6041 33.5959C76.1549 28.5634 77.1017 25.3822 77.4445 24.0526C77.532 24.4481 77.6777 24.9854 77.8807 25.6656C78.0718 26.3069 78.8891 28.9496 80.3323 33.5946C80.4671 34.0289 80.1431 34.4712 79.6889 34.4712ZM80.7399 20.8868C80.6196 20.5453 80.2961 20.3169 79.934 20.3169H74.9062C74.5433 20.3169 74.2206 20.5453 74.1003 20.8876L66.1625 43.47C65.9896 43.9624 66.355 44.4783 66.8768 44.4783H70.7441C71.0776 44.4783 71.3716 44.2605 71.4691 43.9418L72.8609 39.371C72.9732 39.0028 73.3133 38.7509 73.6988 38.7509H81.1742C81.559 38.7509 81.899 39.0028 82.0113 39.371L83.4292 44.0247C83.5114 44.2938 83.7599 44.4783 84.0413 44.4783H88.1598C88.6015 44.4783 88.91 44.0414 88.7631 43.6251L80.7399 20.8868Z" fill="#FAD7A0"/>
<path d="M108.486 20.4155H105.063C104.604 20.4155 104.232 20.7877 104.232 21.2466V35.113C104.232 36.9786 103.856 38.3476 103.104 39.2196C102.353 40.0921 101.143 40.5285 99.4754 40.5285C97.753 40.5285 96.5182 40.095 95.7719 39.2277C95.0263 38.361 94.6528 37.0006 94.6528 35.1458V21.2466C94.6528 20.7877 94.2806 20.4155 93.8215 20.4155H90.3984C89.9395 20.4155 89.5674 20.7877 89.5674 21.2466V35.9195C89.5674 38.6737 90.4233 40.8439 92.1351 42.4295C93.8463 44.015 96.2496 44.8075 99.3438 44.8075C101.395 44.8075 103.173 44.4514 104.676 43.7377C106.18 43.0248 107.329 41.9984 108.124 40.6601C108.92 39.3211 109.317 37.7631 109.317 35.9858V21.2466C109.317 20.7877 108.945 20.4155 108.486 20.4155Z" fill="#FAD7A0"/>
<path d="M69.9667 24.009V21.0684C69.9667 20.7076 69.6748 20.4155 69.314 20.4155H56.5555C56.3162 20.4155 56.0958 20.5466 55.9821 20.7563L54.3845 23.6976C54.1487 24.1325 54.4633 24.6617 54.9586 24.6617H58.3307V43.9275C58.3307 44.2315 58.5765 44.4781 58.8807 44.4781H62.8822C63.1863 44.4781 63.4328 44.2315 63.4328 43.9275V24.6617H69.314C69.6748 24.6617 69.9667 24.3698 69.9667 24.009Z" fill="#FAD7A0"/>
<path d="M0.504555 24.6289H11.4509C11.7295 24.6289 11.9555 24.4005 11.9555 24.1185V20.926C11.9555 20.6439 11.7295 20.4155 11.4509 20.4155H0.504555C0.225947 20.4155 0 20.6439 0 20.926V24.1185C0 24.4005 0.225947 24.6289 0.504555 24.6289Z" fill="#FAD7A0"/>
<path d="M36.8029 55.0988H39.4922C39.698 55.0988 39.8651 55.2659 39.8651 55.4723V59.091C39.8651 59.3484 39.692 59.5742 39.4441 59.645C39.0512 59.7565 38.6757 59.8387 38.3183 59.8922C37.8345 59.9637 37.34 59.9997 36.8349 59.9997C35.5487 59.9997 34.5672 59.6223 33.889 58.8665C33.2109 58.1108 32.8721 57.0258 32.8721 55.6119C32.8721 54.2363 33.2656 53.1637 34.052 52.3948C34.8392 51.6256 35.9296 51.2407 37.3241 51.2407C38.0764 51.2407 38.8054 51.3705 39.5117 51.629C39.6994 51.6977 39.7948 51.9063 39.7187 52.0907L39.3899 52.8811C39.3177 53.0548 39.1194 53.1417 38.9456 53.0703C38.4185 52.8531 37.8745 52.7442 37.3127 52.7442C36.5317 52.7442 35.9063 53.0067 35.4366 53.5313C34.9661 54.0558 34.7309 54.7607 34.7309 55.6467C34.7309 56.5714 34.9206 57.2777 35.2994 57.7648C35.6784 58.2525 36.229 58.4965 36.9512 58.4965C37.3281 58.4965 37.7109 58.4576 38.0991 58.3794V56.6021H36.8029C36.6271 56.6021 36.4854 56.4598 36.4854 56.2848V55.4162C36.4854 55.241 36.6271 55.0988 36.8029 55.0988Z" fill="#FAD7A0"/>
<path d="M43.9688 55.1455H44.5514C45.1226 55.1455 45.5442 55.0506 45.8162 54.8601C46.0882 54.6698 46.2238 54.3705 46.2238 53.9622C46.2238 53.5585 46.0848 53.2712 45.8075 53.1002C45.5296 52.9292 45.0993 52.8437 44.5167 52.8437H43.9688V55.1455ZM43.9688 56.6141V59.4211C43.9688 59.6764 43.7616 59.8834 43.5065 59.8834H42.6244C42.3691 59.8834 42.1621 59.6764 42.1621 59.4211V51.8253C42.1621 51.5702 42.3691 51.3638 42.6244 51.3638H44.6449C45.8022 51.3638 46.6588 51.5742 47.2147 51.9958C47.7706 52.4174 48.0479 53.0574 48.0479 53.9161C48.0479 54.4171 47.9102 54.863 47.6342 55.2531C47.3583 55.6438 46.9681 55.9499 46.463 56.1711L48.4822 59.1625C48.6894 59.4699 48.4695 59.8834 48.0992 59.8834H47.2206C47.0609 59.8834 46.9126 59.8006 46.8285 59.6656L44.9302 56.6141H43.9688Z" fill="#FAD7A0"/>
<path d="M52.7545 55.6113C52.7545 56.5637 52.935 57.2798 53.2964 57.7616C53.658 58.2433 54.1978 58.4846 54.9167 58.4846C56.3581 58.4846 57.0789 57.5271 57.0789 55.6113C57.0789 53.6925 56.362 52.7323 54.9281 52.7323C54.2091 52.7323 53.6673 52.9741 53.3025 53.4579C52.9369 53.9418 52.7545 54.6592 52.7545 55.6113ZM58.9725 55.6113C58.9725 57.022 58.6231 58.1058 57.9235 58.8634C57.2246 59.6211 56.2217 59.9999 54.9167 59.9999C53.6112 59.9999 52.6089 59.6211 51.9094 58.8634C51.2105 58.1058 50.8604 57.0178 50.8604 55.6C50.8604 54.1816 51.2111 53.0991 51.9126 52.3508C52.6136 51.6031 53.6192 51.229 54.9281 51.229C56.2378 51.229 57.2386 51.6057 57.9322 52.3595C58.6257 53.1131 58.9725 54.1977 58.9725 55.6113Z" fill="#FAD7A0"/>
<path d="M67.9404 51.3633C68.1188 51.3633 68.2631 51.5076 68.2631 51.686V56.8763C68.2631 57.5057 68.1222 58.0569 67.8402 58.5313C67.5589 59.005 67.1519 59.3685 66.6195 59.6211C66.0869 59.8736 65.4575 59.9999 64.7312 59.9999C63.6361 59.9999 62.7849 59.7194 62.1788 59.1575C61.5728 58.5961 61.2695 57.8285 61.2695 56.8529V51.686C61.2695 51.5076 61.4144 51.3633 61.5923 51.3633H62.7482C62.9258 51.3633 63.0701 51.5076 63.0701 51.686V56.579C63.0701 57.2358 63.2025 57.7175 63.4671 58.0243C63.731 58.3309 64.1679 58.4845 64.778 58.4845C65.3687 58.4845 65.7969 58.3302 66.0629 58.0215C66.3288 57.7122 66.4625 57.2277 66.4625 56.5676V51.686C66.4625 51.5076 66.6068 51.3633 66.7845 51.3633H67.9404Z" fill="#FAD7A0"/>
<path d="M72.3672 55.3724H72.9619C73.5171 55.3724 73.9328 55.2627 74.2088 55.043C74.4847 54.8239 74.6222 54.5038 74.6222 54.0841C74.6222 53.6612 74.5067 53.3485 74.2754 53.146C74.0444 52.9443 73.6822 52.8433 73.189 52.8433H72.3672V55.3724ZM76.4463 54.0206C76.4463 54.9373 76.1598 55.6383 75.587 56.1241C75.0139 56.6098 74.1993 56.8524 73.1422 56.8524H72.3672V59.6873C72.3672 59.7957 72.2797 59.8832 72.1714 59.8832H70.7564C70.648 59.8832 70.5605 59.7957 70.5605 59.6873V51.5584C70.5605 51.4509 70.648 51.3628 70.7564 51.3628H73.282C74.3156 51.3628 75.1014 51.5852 75.6393 52.0302C76.1778 52.4751 76.4463 53.1388 76.4463 54.0206Z" fill="#FAD7A0"/>
</svg>
